<?xml version="1.0" encoding="iso-8859-1"?>
<!-- Generator: Adobe Illustrator 18.1.1, SVG Export Plug-In . SVG Version: 6.00 Build 0)  -->
<svg version="1.1" id="Capa_1" xmlns="http://www.w3.org/2000/svg" xmlns:xlink="http://www.w3.org/1999/xlink" x="0px" y="0px"
	 viewBox="0 0 315.683 315.683" style="enable-background:new 0 0 315.683 315.683;" xml:space="preserve">
<g>
	<g>
		<g>
			<polygon style="fill:#010002;" points="144.391,50.213 144.38,68.287 284.523,68.287 284.523,254.108 144.391,254.108 
				144.391,274.379 144.391,282.081 305.719,282.081 305.719,50.213 			"/>
		</g>
		<g>
			<rect x="144.391" y="296.097" style="fill:#010002;" width="44.279" height="15.083"/>
		</g>
		<g>
			<path style="fill:#010002;" d="M72.775,200.897c-10.351,0-18.787,8.436-18.787,18.787s8.431,18.781,18.787,18.781
				s18.787-8.431,18.787-18.781S83.131,200.897,72.775,200.897z"/>
		</g>
		<g>
			<rect x="53.994" y="120.9" style="fill:#010002;" width="37.568" height="9.665"/>
		</g>
		<g>
			<path style="fill:#010002;" d="M9.964,315.683H135.59V0H9.964V315.683z M72.775,244.91c-13.913,0-25.226-11.313-25.226-25.226
				c0-13.913,11.313-25.237,25.226-25.237s25.226,11.324,25.226,25.237S86.688,244.91,72.775,244.91z M98.001,136.999H47.554
				v-22.545h50.447V136.999z M28.49,17.013h91.801v26.581H28.49V17.013z"/>
		</g>
	</g>
</g>
<g>
</g>
<g>
</g>
<g>
</g>
<g>
</g>
<g>
</g>
<g>
</g>
<g>
</g>
<g>
</g>
<g>
</g>
<g>
</g>
<g>
</g>
<g>
</g>
<g>
</g>
<g>
</g>
<g>
</g>
</svg>
